<svg xmlns="http://www.w3.org/2000/svg" width="820" height="256" viewBox="0 0 820 256">
  <defs>
    <linearGradient id="bg" x1="0" y1="0" x2="0" y2="1">
      <stop offset="0" stop-color="#2E86C1"/>
      <stop offset="1" stop-color="#0B3D6B"/>
    </linearGradient>
    <linearGradient id="water" x1="0" y1="0" x2="0" y2="1">
      <stop offset="0" stop-color="#EAF6FF"/>
      <stop offset="1" stop-color="#BFE3FB"/>
    </linearGradient>
    <clipPath id="round"><rect x="16" y="16" width="224" height="224" rx="48"/></clipPath>
  </defs>
  <!-- Icon -->
  <rect x="16" y="16" width="224" height="224" rx="48" fill="url(#bg)"/>
  <g clip-path="url(#round)">
    <line x1="40" y1="112" x2="216" y2="112" stroke="#FFFFFF" stroke-opacity="0.72"
          stroke-width="7" stroke-dasharray="18 14" stroke-linecap="round"/>
    <g stroke="#FFFFFF" stroke-opacity="0.9" stroke-width="8" stroke-linecap="round" stroke-linejoin="round" fill="none">
      <line x1="128" y1="122" x2="128" y2="158"/>
      <polyline points="112,146 128,162 144,146"/>
    </g>
    <path fill="url(#water)" d="M16,196 C 52,178 76,178 112,196 C 148,214 172,214 208,196 C 226,187 240,190 240,190 L 240,240 L 16,240 Z"/>
    <path fill="#FFFFFF" fill-opacity="0.35" d="M16,210 C 52,194 76,194 112,210 C 148,226 172,226 208,210 C 226,202 240,205 240,205 L 240,240 L 16,240 Z"/>
  </g>
  <!-- Wortmarke -->
  <text x="286" y="150" font-family="Helvetica, Arial, sans-serif" font-size="120"
        font-weight="700" letter-spacing="4" fill="#0B3D6B">NIWIS</text>
  <text x="290" y="205" font-family="Helvetica, Arial, sans-serif" font-size="42"
        font-weight="500" letter-spacing="2" fill="#2E86C1">Niedrigwasser</text>
</svg>
